<svg width="250" height="250" viewBox="0 0 250 250" fill="none" xmlns="http://www.w3.org/2000/svg">
<path d="M50.4898 158.954C50.4898 154.581 47.0543 151.037 42.8163 151.037H8.28571C4.04777 151.037 0.612244 154.581 0.612244 158.954V194.581C0.612244 198.953 4.04777 202.498 8.28571 202.498H38.9796C43.2175 202.498 46.6531 206.042 46.6531 210.415V242.083C46.6531 246.456 50.0886 250 54.3265 250H88.8571C93.0951 250 96.5306 246.456 96.5306 242.083V206.456C96.5306 202.084 93.0951 198.539 88.8571 198.539H58.1633C53.9253 198.539 50.4898 194.995 50.4898 190.622V158.954Z" fill="url(#paint0_linear_403_1411)"/>
<path d="M96.5306 8.52962C96.5306 4.15714 93.0951 0.612549 88.8571 0.612549H54.3265C50.0886 0.612549 46.6531 4.15714 46.6531 8.52962V40.1979C46.6531 44.5704 43.2175 48.115 38.9796 48.115H8.28571C4.04777 48.115 0.612244 51.6596 0.612244 56.0321V91.6589C0.612244 96.0313 4.04777 99.5759 8.28571 99.5759H42.8163C47.0543 99.5759 50.4898 96.0313 50.4898 91.6589V59.9906C50.4898 55.6181 53.9253 52.0735 58.1633 52.0735H88.8571C93.0951 52.0735 96.5306 48.5289 96.5306 44.1564V8.52962Z" fill="url(#paint1_linear_403_1411)"/>
<path d="M154.082 8.52962C154.082 4.15714 157.517 0.612549 161.755 0.612549H196.286C200.524 0.612549 203.959 4.15714 203.959 8.52962V40.1979C203.959 44.5704 207.395 48.115 211.633 48.115H242.327C246.564 48.115 250 51.6596 250 56.0321V91.6589C250 96.0313 246.564 99.5759 242.327 99.5759H207.796C203.558 99.5759 200.122 96.0313 200.122 91.6589V59.9906C200.122 55.6181 196.687 52.0735 192.449 52.0735H161.755C157.517 52.0735 154.082 48.5289 154.082 44.1564V8.52962Z" fill="url(#paint2_linear_403_1411)"/>
<path d="M200.122 158.954C200.122 154.581 203.558 151.037 207.796 151.037H242.327C246.564 151.037 250 154.581 250 158.954V194.581C250 198.953 246.564 202.498 242.327 202.498H211.633C207.395 202.498 203.959 206.042 203.959 210.415V242.083C203.959 246.456 200.524 250 196.286 250H161.755C157.517 250 154.082 246.456 154.082 242.083V206.456C154.082 202.084 157.517 198.539 161.755 198.539H192.449C196.687 198.539 200.122 194.995 200.122 190.622V158.954Z" fill="url(#paint3_linear_403_1411)"/>
<path d="M87.9358 129.747C86.1752 127.065 86.1752 123.548 87.9358 120.866L118.953 71.5047C121.997 66.869 128.615 66.8689 131.659 71.5047L162.676 120.866C164.437 123.548 164.437 127.065 162.676 129.747L131.659 179.108C128.615 183.744 121.997 183.744 118.953 179.108L87.9358 129.747Z" fill="url(#paint4_linear_403_1411)"/>
<defs>
<linearGradient id="paint0_linear_403_1411" x1="125.306" y1="0.612549" x2="125.306" y2="250" gradientUnits="userSpaceOnUse">
<stop stop-color="#1766FF"/>
<stop offset="1" stop-color="#16ABFF"/>
</linearGradient>
<linearGradient id="paint1_linear_403_1411" x1="125.306" y1="0.612549" x2="125.306" y2="250" gradientUnits="userSpaceOnUse">
<stop stop-color="#1766FF"/>
<stop offset="1" stop-color="#16ABFF"/>
</linearGradient>
<linearGradient id="paint2_linear_403_1411" x1="125.306" y1="0.612549" x2="125.306" y2="250" gradientUnits="userSpaceOnUse">
<stop stop-color="#1766FF"/>
<stop offset="1" stop-color="#16ABFF"/>
</linearGradient>
<linearGradient id="paint3_linear_403_1411" x1="125.306" y1="0.612549" x2="125.306" y2="250" gradientUnits="userSpaceOnUse">
<stop stop-color="#1766FF"/>
<stop offset="1" stop-color="#16ABFF"/>
</linearGradient>
<linearGradient id="paint4_linear_403_1411" x1="125.306" y1="0.612549" x2="125.306" y2="250" gradientUnits="userSpaceOnUse">
<stop stop-color="#1766FF"/>
<stop offset="1" stop-color="#16ABFF"/>
</linearGradient>
</defs>
</svg>
